<?xml version="1.0" encoding="UTF-8"?>
<!DOCTYPE svg PUBLIC "-//W3C//DTD SVG 1.1//EN" "http://www.w3.org/Graphics/SVG/1.1/DTD/svg11.dtd">
<svg xmlns="http://www.w3.org/2000/svg" version="1.1" width="512px" height="512px" style="shape-rendering:geometricPrecision; text-rendering:geometricPrecision; image-rendering:optimizeQuality; fill-rule:evenodd; clip-rule:evenodd" xmlns:xlink="http://www.w3.org/1999/xlink">
<g><path style="opacity:0.998" fill="#f9d170" d="M 246.5,39.5 C 261.477,36.9911 273.977,41.3244 284,52.5C 352.205,178.912 419.872,305.579 487,432.5C 489.578,452.179 481.411,465.013 462.5,471C 324.5,471.667 186.5,471.667 48.5,471C 25.5632,462.874 18.3966,447.374 27,424.5C 93.6667,300.5 160.333,176.5 227,52.5C 232.36,46.2807 238.86,41.9474 246.5,39.5 Z"/></g>
<g><path style="opacity:1" fill="#433f4f" d="M 249.5,126.5 C 271.962,126.678 281.295,138.011 277.5,160.5C 276.026,216.834 274.526,273.168 273,329.5C 269.9,338.138 263.733,342.471 254.5,342.5C 245.346,341.513 239.846,336.513 238,327.5C 236.394,271.171 234.894,214.837 233.5,158.5C 230.429,143.306 235.763,132.639 249.5,126.5 Z"/></g>
<g><path style="opacity:1" fill="#433f4f" d="M 249.5,376.5 C 264.153,374.738 273.987,380.738 279,394.5C 280.817,409.369 274.651,419.203 260.5,424C 246.045,425.52 236.545,419.353 232,405.5C 230.099,394.798 233.599,386.298 242.5,380C 244.925,378.787 247.259,377.621 249.5,376.5 Z"/></g>
</svg>
