<?xml version="1.0" encoding="UTF-8"?>
<!DOCTYPE svg PUBLIC "-//W3C//DTD SVG 1.1//EN" "http://www.w3.org/Graphics/SVG/1.1/DTD/svg11.dtd">
<svg xmlns="http://www.w3.org/2000/svg" version="1.1" width="512px" height="512px" style="shape-rendering:geometricPrecision; text-rendering:geometricPrecision; image-rendering:optimizeQuality; fill-rule:evenodd; clip-rule:evenodd" xmlns:xlink="http://www.w3.org/1999/xlink">
<g><path style="opacity:0.962" fill="#000000" d="M 511.5,413.5 C 511.5,420.833 511.5,428.167 511.5,435.5C 505.232,462.933 488.232,479.433 460.5,485C 323.833,485.667 187.167,485.667 50.5,485C 23.2176,479.549 6.21756,463.382 -0.5,436.5C -0.5,428.833 -0.5,421.167 -0.5,413.5C 1.47976,407.079 3.97976,400.746 7,394.5C 73.7475,278.67 140.747,163.003 208,47.5C 231.12,23.6186 257.62,19.1186 287.5,34C 296.38,39.8792 303.546,47.3792 309,56.5C 373.667,168.5 438.333,280.5 503,392.5C 506.547,399.331 509.381,406.331 511.5,413.5 Z M 249.5,56.5 C 263.78,55.0573 274.614,60.3906 282,72.5C 348.432,187.262 414.432,302.262 480,417.5C 482.37,435.788 474.87,447.955 457.5,454C 322.833,454.667 188.167,454.667 53.5,454C 31.4325,445.359 25.2659,430.192 35,408.5C 99.6667,296.5 164.333,184.5 229,72.5C 233.748,64.3893 240.581,59.0559 249.5,56.5 Z"/></g>
<g><path style="opacity:1" fill="#000000" d="M 240.5,175.5 C 250.5,175.5 260.5,175.5 270.5,175.5C 270.5,225.5 270.5,275.5 270.5,325.5C 260.5,325.5 250.5,325.5 240.5,325.5C 240.5,275.5 240.5,225.5 240.5,175.5 Z"/></g>
<g><path style="opacity:0.947" fill="#000000" d="M 248.5,355.5 C 268.65,353.483 277.483,362.483 275,382.5C 269.657,393.752 260.824,397.919 248.5,395C 237.248,389.657 233.081,380.824 236,368.5C 238.353,362.315 242.52,357.982 248.5,355.5 Z"/></g>
</svg>
