<?xml version="1.0" encoding="UTF-8"?>
<!DOCTYPE svg PUBLIC "-//W3C//DTD SVG 1.1//EN" "http://www.w3.org/Graphics/SVG/1.1/DTD/svg11.dtd">
<svg xmlns="http://www.w3.org/2000/svg" version="1.1" width="512px" height="512px" style="shape-rendering:geometricPrecision; text-rendering:geometricPrecision; image-rendering:optimizeQuality; fill-rule:evenodd; clip-rule:evenodd" xmlns:xlink="http://www.w3.org/1999/xlink">
<g><path style="opacity:1" fill="#d63323" d="M 264.5,40.5 C 249.961,44.1974 237.795,51.8641 228,63.5C 165,163.167 102,262.833 39,362.5C 33.6005,370.908 28.6005,379.575 24,388.5C 16.6064,411.775 20.6064,432.775 36,451.5C 47.7532,463.462 61.9199,470.128 78.5,471.5C 60.968,473.354 44.3013,470.521 28.5,463C 12.9713,452.759 3.30464,438.592 -0.5,420.5C -0.5,413.5 -0.5,406.5 -0.5,399.5C 2.00271,389.518 6.16937,380.185 12,371.5C 76.9166,269.335 141.583,167.002 206,64.5C 220.973,45.6003 240.473,37.6003 264.5,40.5 Z"/></g>
<g><path style="opacity:0.985" fill="#f64b47" d="M 264.5,40.5 C 281.332,42.9949 294.832,50.9949 305,64.5C 372,170.833 439,277.167 506,383.5C 508.159,388.844 509.992,394.177 511.5,399.5C 511.5,406.5 511.5,413.5 511.5,420.5C 504.53,449.635 486.196,466.468 456.5,471C 330.5,471.5 204.5,471.667 78.5,471.5C 61.9199,470.128 47.7532,463.462 36,451.5C 20.6064,432.775 16.6064,411.775 24,388.5C 28.6005,379.575 33.6005,370.908 39,362.5C 102,262.833 165,163.167 228,63.5C 237.795,51.8641 249.961,44.1974 264.5,40.5 Z"/></g>
<g><path style="opacity:1" fill="#af221b" d="M 263.5,75.5 C 258.486,79.3508 254.319,84.0175 251,89.5C 187.062,191.767 122.729,293.767 58,395.5C 50.5092,412.348 54.3425,425.848 69.5,436C 64.8452,436.499 60.1785,436.666 55.5,436.5C 38.8509,431.904 31.6842,420.904 34,403.5C 34.7246,401.051 35.7246,398.717 37,396.5C 102.667,292.5 168.333,188.5 234,84.5C 241.832,75.0037 251.665,72.0037 263.5,75.5 Z"/></g>
<g><path style="opacity:1" fill="#c6271a" d="M 263.5,75.5 C 271.284,78.1098 277.117,83.1098 281,90.5C 344.938,192.767 409.271,294.767 474,396.5C 481.53,416.24 475.363,429.74 455.5,437C 321.999,437.833 188.666,437.666 55.5,436.5C 60.1785,436.666 64.8452,436.499 69.5,436C 54.3425,425.848 50.5092,412.348 58,395.5C 122.729,293.767 187.062,191.767 251,89.5C 254.319,84.0175 258.486,79.3508 263.5,75.5 Z"/></g>
<g><path style="opacity:1" fill="#f1efef" d="M 251.5,184.5 C 261.519,183.921 268.352,188.254 272,197.5C 272.667,232.833 272.667,268.167 272,303.5C 267.031,315.6 258.531,319.1 246.5,314C 242.806,311.313 240.306,307.813 239,303.5C 238.333,268.167 238.333,232.833 239,197.5C 241.353,191.315 245.52,186.982 251.5,184.5 Z"/></g>
<g><path style="opacity:1" fill="#f1eded" d="M 251.5,347.5 C 268.791,348.444 274.957,357.111 270,373.5C 261.989,382.835 252.989,383.835 243,376.5C 235.218,363.681 238.052,354.014 251.5,347.5 Z"/></g>
</svg>
